# xmcd CD database file
#
# Track frame offsets:
#	150
#	11017
#	21847
#	42059
#	50639
#	63216
#	77751
#	88281
#	102001
#	116986
#	127561
#	138068
#	150953
#	163808
#	176228
#	186930
#
# Disc length: 2722 seconds
#
# Revision: 3
# Processed by: cddbd v1.4PL0 Copyright (c) Steve Scherf et al.
# Submitted via: CDex 1.40Release
#
DISCID=c80aa010
DTITLE=The Animals - Animals Antholy 1964-1965 V1
DYEAR=1965
DGENRE=Blues
TTITLE0=V1A1 Baby let me take you home
TTITLE1=V1A2 Gonna send you back to Walker
TTITLE2=V1A3 House of the rising sun
TTITLE3=V1A4 Talkin'bout you
TTITLE4=V1A5 I'm crying
TTITLE5=V1A6 Dimples
TTITLE6=V1A7 She said Yeah
TTITLE7=V1A8 I'm in love again
TTITLE8=V1B1 Boum Boum
TTITLE9=V1B2 Club a gogo
TTITLE10=V1B3 Don't let me be misundertood
TTITLE11=V1B4 Roadrunner
TTITLE12=V1B5 Bury my body
TTITLE13=V1B6 Around and around
TTITLE14=V1B7 The girl can't help it
TTITLE15=V1B8 The right time
EXTD=YEAR: 1965 ID3G: 0
EXTT0=
EXTT1=
EXTT2=
EXTT3=
EXTT4=
EXTT5=
EXTT6=
EXTT7=
EXTT8=
EXTT9=
EXTT10=
EXTT11=
EXTT12=
EXTT13=
EXTT14=
EXTT15=
PLAYORDER=
